P2
# PGM image
2 2
255
40 50
150 200
