P2
# PGM image
4 4
255
0 5 10 15
30 40 50 60
100 150 200 250
255 1 255 1
